<svg xmlns="http://www.w3.org/2000/svg" viewBox="0 0 100 100" fill="none">
  <!-- Ring: dark segment 270° (3 o'clock → 12 o'clock, clockwise) -->
  <path d="M 83 50 A 33 33 0 1 1 50 17"
        stroke="#FFFFFF" stroke-width="8.5" stroke-linecap="butt"/>

  <!-- Ring: red segment 90° (12 o'clock → 3 o'clock, clockwise) -->
  <path d="M 50 17 A 33 33 0 0 1 83 50"
        stroke="#D32F2F" stroke-width="8.5" stroke-linecap="butt"/>

  <!-- Heart (Material Design heart, centered ~40,48) -->
  <path d="M12 21.35l-1.45-1.32C5.4 15.36 2 12.28 2 8.5 2 5.42 4.42 3 7.5 3c1.74 0 3.41.81 4.5 2.09C13.09 3.81 14.76 3 16.5 3 19.58 3 22 5.42 22 8.5c0 3.78-3.4 6.86-8.55 11.54L12 21.35z"
        transform="translate(29, 37) scale(0.92)"
        fill="#E53935"/>

  <!-- Checkmark -->
  <path d="M 50 57 L 57 65 L 73 43"
        stroke="#FFFFFF" stroke-width="5.5"
        stroke-linecap="round" stroke-linejoin="round"/>
</svg>
